<svg xmlns="http://www.w3.org/2000/svg" width="128" height="128" viewBox="0 0 128 128">
 <defs>
  <linearGradient id="steel" gradientUnits="userSpaceOnUse" x1="10" y1="10" x2="118" y2="118"><stop stop-color="#f4f6f8"/><stop offset=".3" stop-color="#c3cad1"/><stop offset=".65" stop-color="#8a949e"/><stop offset="1" stop-color="#4a535d"/></linearGradient>
 </defs>
 <g transform="translate(101 103) rotate(-45)">
  <rect x="-19" y="-12" width="38" height="36" rx="6" fill="url(#steel)" stroke="#14181e" stroke-width="5"/>
  <rect x="-22" y="-17" width="44" height="12" rx="6" fill="#ffffff" stroke="#14181e" stroke-width="5"/>
 </g>
 <g stroke="#14181e" stroke-linecap="round" stroke-linejoin="round" fill="none">
  <path d="M36 60 L60 36 L90 54 L94 86 L70 96 L44 82 Z" fill="#14181e" stroke-width="6"/>
  <circle cx="71" cy="42" r="10" fill="#14181e" stroke-width="5"/>
  <circle cx="84" cy="52" r="10" fill="#14181e" stroke-width="5"/>
  <circle cx="92" cy="66" r="9" fill="#14181e" stroke-width="5"/>
  <path d="THUMB" stroke-width="21"/>
  <path d="INDEX" stroke-width="21"/>
 </g>
 <g stroke-linecap="round" stroke-linejoin="round" fill="none">
  <path d="M36 60 L60 36 L90 54 L94 86 L70 96 L44 82 Z" fill="url(#steel)"/>
  <circle cx="71" cy="42" r="10" fill="url(#steel)"/>
  <circle cx="84" cy="52" r="10" fill="url(#steel)"/>
  <circle cx="92" cy="66" r="9" fill="url(#steel)"/>
  <path d="M64 46 L76 58 M78 58 L88 72" stroke="#14181e" stroke-opacity=".7" stroke-width="3"/>
  <path d="THUMB" stroke="url(#steel)" stroke-width="15"/>
  <path d="INDEX" stroke="url(#steel)" stroke-width="15"/>
  <path d="SEAMS" stroke="#14181e" stroke-width="3"/>
  <path d="SHINE" stroke="#ffffff" stroke-opacity=".75" stroke-width="3.5"/>
  <path d="M48 76 L66 60 L86 70" stroke="#14181e" stroke-opacity=".7" stroke-width="3"/>
 </g>
</svg>
